<svg width="19" height="16" viewBox="0 0 19 16" fill="none" xmlns="http://www.w3.org/2000/svg">
<path d="M0.409091 14H1.81818V9.45455H4.36364C4.46591 9.45455 4.5625 9.45455 4.65909 9.44886L7.11364 14H8.75L6.11932 9.19318C7.60227 8.6875 8.29545 7.47727 8.29545 5.93182C8.29545 3.875 7.06818 2.36364 4.34091 2.36364H0.409091V14ZM1.81818 8.18182V3.61364H4.29545C6.18182 3.61364 6.90909 4.53409 6.90909 5.93182C6.90909 7.32955 6.18182 8.18182 4.31818 8.18182H1.81818ZM13.8707 15.4545H14.8026V14.1875C17.1889 14.0227 18.5298 12.6136 18.5298 10.8409C18.5298 8.65909 16.4616 7.95455 15.2571 7.63636L14.8026 7.51136V3.47159C16.0071 3.59091 16.8821 4.23864 17.0071 5.27273H18.3707C18.3139 3.61364 16.8594 2.35227 14.8026 2.21591V0.90909H13.8707V2.23295C11.9219 2.43182 10.4616 3.67045 10.4616 5.45455C10.4616 7.02273 11.598 7.95455 13.4162 8.47727L13.8707 8.60795V12.9091C12.6776 12.7841 11.7003 12.1705 11.598 11H10.1435C10.2741 12.7898 11.6378 14.0398 13.8707 14.1875V15.4545ZM14.8026 12.9091V8.875L14.848 8.88636C16.0753 9.22727 17.1662 9.65909 17.1662 10.8182C17.1662 11.9602 16.1776 12.7557 14.8026 12.9091ZM13.8707 7.26136C13.0071 7.01705 11.8253 6.53977 11.8253 5.38636C11.8253 4.40341 12.6207 3.65341 13.8707 3.48864V7.26136Z" fill="#868E96"/>
</svg>
